<?xml version="1.0" standalone="no"?>
<!DOCTYPE svg PUBLIC "-//W3C//DTD SVG 20010904//EN"
 "http://www.w3.org/TR/2001/REC-SVG-20010904/DTD/svg10.dtd">
<svg version="1.0" xmlns="http://www.w3.org/2000/svg"
 width="512.000000pt" height="512.000000pt" viewBox="0 0 512.000000 512.000000"
 preserveAspectRatio="xMidYMid meet">
<metadata>
Created by potrace 1.14, written by Peter Selinger 2001-2017
</metadata>
<g transform="translate(0.000000,512.000000) scale(0.100000,-0.100000)"
fill="#000000" stroke="none">
<path d="M2357 5114 c-3 -4 -19 -8 -34 -9 -63 -6 -148 -17 -153 -20 -3 -2 -26
-6 -50 -10 -25 -3 -65 -11 -90 -17 -25 -5 -52 -11 -60 -13 -17 -3 -151 -46
-260 -82 -211 -70 -562 -270 -734 -418 -6 -5 -41 -35 -76 -65 -176 -148 -377
-383 -502 -586 -49 -79 -130 -238 -182 -356 -56 -127 -135 -386 -160 -528 -24
-131 -25 -141 -32 -198 -3 -29 -8 -63 -12 -75 -8 -29 -8 -312 1 -355 3 -19 9
-62 12 -95 2 -34 7 -73 10 -87 3 -14 8 -41 11 -60 7 -52 19 -110 29 -148 20
-77 39 -139 65 -212 17 -47 32 -89 34 -95 5 -18 18 -50 37 -92 10 -24 19 -45
19 -48 0 -20 115 -238 173 -330 72 -113 162 -242 181 -260 7 -5 22 -23 34 -40
34 -43 199 -212 263 -267 50 -43 125 -101 180 -138 12 -8 34 -25 49 -38 15
-12 30 -22 33 -22 3 0 28 -15 54 -32 54 -37 65 -43 194 -111 165 -87 419 -186
559 -218 25 -6 52 -12 60 -14 69 -16 164 -34 205 -40 28 -4 64 -9 80 -12 17
-3 40 -4 53 -4 12 0 22 -4 22 -10 0 -12 302 -8 355 5 16 4 47 9 70 11 293 27
594 115 876 255 152 76 335 183 359 211 3 3 26 20 53 38 26 18 58 42 71 54 12
12 38 33 56 47 46 34 213 201 280 280 30 36 57 67 60 70 4 3 22 27 41 55 18
27 42 58 52 69 9 11 17 25 17 32 0 7 3 14 8 16 9 4 87 125 124 192 77 141 178
373 181 418 1 10 5 18 9 18 4 0 7 3 6 8 -2 6 23 112 39 162 2 8 4 16 4 17 0 2
5 17 10 35 5 18 12 48 15 67 3 18 8 43 10 55 3 11 7 39 10 61 3 22 7 49 9 61
3 11 7 52 11 90 4 38 11 71 15 72 12 5 11 252 0 252 -6 0 -9 8 -9 18 1 22 -12
178 -18 206 -2 12 -7 41 -10 66 -3 25 -10 65 -15 90 -5 25 -11 56 -14 70 -7
43 -62 222 -95 310 -17 47 -35 97 -40 111 -8 27 -121 250 -130 259 -3 3 -11
17 -17 32 -13 29 -136 219 -156 240 -7 8 -28 34 -47 58 -46 60 -59 75 -102
126 -20 24 -43 51 -50 61 -16 21 -130 129 -203 191 -28 23 -63 54 -80 68 -77
66 -282 192 -448 274 -165 81 -336 149 -472 185 -97 26 -180 46 -205 50 -14 2
-38 6 -55 9 -16 2 -50 8 -75 11 -25 4 -50 8 -57 9 -7 1 -16 5 -19 9 -9 9 -428
9 -437 1z m388 -1658 c43 -7 67 -13 95 -24 14 -5 30 -11 35 -12 6 -1 21 -7 35
-13 14 -6 28 -10 33 -9 4 1 7 -3 7 -10 0 -6 3 -9 6 -5 11 11 154 -94 154 -113
0 -14 -57 -79 -64 -73 -3 3 -6 1 -6 -7 0 -7 -17 -29 -37 -49 -21 -20 -90 -93
-153 -161 -186 -200 -199 -211 -201 -172 -2 39 1 609 4 627 2 19 31 35 52 29
6 -2 24 -5 40 -8z m-304 -30 c12 -44 11 -623 -1 -631 -10 -6 -59 41 -204 196
-43 46 -116 123 -162 170 -46 47 -84 92 -84 98 0 16 81 91 98 91 5 0 21 9 35
20 15 12 29 21 32 21 2 0 26 9 52 20 27 12 56 22 65 24 10 2 24 8 33 12 8 5
41 9 72 8 54 0 57 -1 64 -29z m-549 -382 c26 -13 85 -61 132 -106 47 -46 128
-123 180 -173 52 -49 95 -92 96 -95 0 -3 -147 -5 -327 -5 -370 0 -334 -9 -318
80 4 22 7 46 8 53 0 6 4 12 9 12 5 0 7 4 3 9 -6 11 42 139 62 162 7 8 13 19
13 24 0 4 9 23 21 41 24 39 39 38 121 -2z m1460 -21 c67 -117 121 -306 98
-343 -7 -12 -64 -14 -329 -15 -177 -1 -321 2 -321 6 0 11 119 129 129 129 5 0
11 6 13 12 3 7 13 13 24 13 10 0 20 6 20 13 1 6 2 19 3 27 0 9 9 19 19 22 9 4
31 22 48 40 l31 33 43 -54 c23 -31 39 -60 35 -66 -3 -5 1 -10 9 -10 21 0 20
15 -1 39 -26 28 -37 43 -57 73 -17 25 -17 26 21 55 40 30 142 78 175 82 3 1
21 -25 40 -56z m86 -552 c21 -1 22 -4 18 -63 -5 -68 -9 -89 -24 -128 -5 -14
-10 -29 -11 -35 -3 -25 -35 -95 -42 -95 -5 0 -9 -3 -8 -7 2 -16 -14 -53 -22
-53 -5 0 -9 -7 -9 -15 0 -8 -5 -15 -11 -15 -5 0 -8 -4 -5 -9 3 -5 -1 -12 -10
-15 -9 -3 -50 12 -96 36 -68 36 -108 70 -257 215 -114 112 -172 175 -164 180
8 6 520 9 641 4z m-1138 -6 c0 -10 -151 -155 -158 -152 -9 4 -46 -36 -50 -53
-2 -7 -15 -22 -30 -34 -15 -12 -42 -36 -62 -55 -39 -38 -185 -141 -199 -141
-5 0 -13 9 -16 20 -3 11 -11 20 -16 20 -5 0 -9 6 -9 14 0 7 -7 19 -15 26 -9 7
-13 15 -11 18 3 3 -1 17 -8 31 -44 82 -65 154 -72 246 l-5 65 325 0 c179 0
326 -2 326 -5z m149 -463 c1 -334 -1 -344 -53 -336 -77 12 -146 29 -146 34 0
4 -6 7 -12 7 -15 1 -81 26 -88 33 -3 3 -25 15 -50 28 -25 12 -62 37 -82 55
l-37 32 86 95 c291 323 281 312 296 304 6 -4 9 -4 6 0 -3 3 10 24 30 46 30 34
37 38 42 23 4 -10 7 -154 8 -321z m286 273 c22 -26 51 -59 65 -75 14 -15 41
-47 61 -71 21 -24 50 -58 65 -74 16 -17 58 -64 94 -105 36 -40 71 -79 78 -86
6 -7 12 -14 12 -17 0 -9 -47 -52 -61 -55 -7 -2 -16 -8 -18 -13 -3 -10 -51 -32
-60 -29 -2 1 -7 -2 -10 -7 -8 -13 -91 -45 -91 -35 0 4 -4 2 -8 -5 -7 -11 -17
-14 -130 -35 -48 -9 -65 -9 -74 0 -9 9 -11 98 -10 333 2 177 5 326 8 330 8 14
35 -6 79 -56z"/>
<path d="M1942 2248 c-8 -10 -4 -13 15 -15 15 0 22 2 17 6 -5 3 -12 10 -15 14
-3 4 -11 2 -17 -5z"/>
<path d="M1980 2200 c0 -5 5 -10 10 -10 6 0 10 5 10 10 0 6 -4 10 -10 10 -5 0
-10 -4 -10 -10z"/>
</g>
</svg>
